<svg version="1.1" xmlns="http://www.w3.org/2000/svg" xmlns:xlink="http://www.w3.org/1999/xlink" viewBox="0 0 360 360">
    <g>
        <path class="st0" d="M309.8,235.9c-22.1,49.9-71.6,82.2-126.1,82.2c-76,0-137.9-61.9-137.9-137.9S107.7,42.2,183.8,42.2
        c54.5,0,104,32.3,126.1,82.2l5.7,13l25.9-11.5l-5.7-13c-26.6-60.2-86.3-99.1-152-99.1c-91.7,0-166.3,74.6-166.3,166.3
        c0,91.7,74.6,166.3,166.3,166.3c65.7,0,125.4-38.9,152-99.1l5.7-13l-25.9-11.5L309.8,235.9z">
        </path>
        <polygon class="st0" points="240.6,164.4 186,164.4 209.3,89.6 121.6,195.8 176.2,195.8 152.9,270.7"></polygon>
    </g>
</svg>
